<mxfile host="65bd71144e">
    <diagram id="C83RrL-TDx1zGtMONfJB" name="Page-1">
        <mxGraphModel dx="1435" dy="1013" grid="1" gridSize="10" guides="1" tooltips="1" connect="1" arrows="1" fold="1" page="1" pageScale="1" pageWidth="1600" pageHeight="900" background="#ffffff" math="0" shadow="0">
            <root>
                <mxCell id="0"/>
                <mxCell id="1" parent="0"/>
                <mxCell id="54" value="" style="rounded=0;whiteSpace=wrap;html=1;labelBorderColor=none;fontSize=20;fontColor=#000000;fillColor=#FFFFFF;" vertex="1" parent="1">
                    <mxGeometry x="40" y="440" width="950" height="320" as="geometry"/>
                </mxCell>
                <mxCell id="8" value="" style="ellipse;whiteSpace=wrap;html=1;aspect=fixed;fillColor=#f5f5f5;fontColor=#333333;strokeColor=#666666;" vertex="1" parent="1">
                    <mxGeometry width="20" height="20" as="geometry"/>
                </mxCell>
                <mxCell id="10" value="" style="ellipse;whiteSpace=wrap;html=1;aspect=fixed;fillColor=#f5f5f5;fontColor=#333333;strokeColor=#666666;" vertex="1" parent="1">
                    <mxGeometry y="770" width="20" height="20" as="geometry"/>
                </mxCell>
                <mxCell id="11" value="" style="ellipse;whiteSpace=wrap;html=1;aspect=fixed;fillColor=#f5f5f5;fontColor=#333333;strokeColor=#666666;" vertex="1" parent="1">
                    <mxGeometry x="1020" y="770" width="20" height="20" as="geometry"/>
                </mxCell>
                <mxCell id="12" value="" style="ellipse;whiteSpace=wrap;html=1;aspect=fixed;fillColor=#f5f5f5;fontColor=#333333;strokeColor=#666666;" vertex="1" parent="1">
                    <mxGeometry x="1020" width="20" height="20" as="geometry"/>
                </mxCell>
                <mxCell id="13" value="Log" style="rounded=0;whiteSpace=wrap;html=1;fillColor=#FFFFFF;verticalAlign=top;fontSize=18;" vertex="1" parent="1">
                    <mxGeometry x="100" y="30" width="300" height="350" as="geometry"/>
                </mxCell>
                <mxCell id="14" value="Segment" style="rounded=0;whiteSpace=wrap;html=1;fillColor=#FFFFFF;verticalAlign=middle;fontSize=16;" vertex="1" parent="1">
                    <mxGeometry x="115" y="70" width="270" height="60" as="geometry"/>
                </mxCell>
                <mxCell id="15" value="Segment" style="rounded=0;whiteSpace=wrap;html=1;fillColor=#FFFFFF;verticalAlign=middle;fontSize=16;" vertex="1" parent="1">
                    <mxGeometry x="115" y="150" width="270" height="60" as="geometry"/>
                </mxCell>
                <mxCell id="16" value="Segment&amp;nbsp; &lt;font color=&quot;#00994d&quot; style=&quot;font-size: 16px;&quot;&gt;**active&lt;/font&gt;" style="rounded=0;whiteSpace=wrap;html=1;fillColor=#CCFFE6;verticalAlign=middle;labelBorderColor=none;fontSize=16;" vertex="1" parent="1">
                    <mxGeometry x="115" y="300" width="270" height="60" as="geometry"/>
                </mxCell>
                <mxCell id="18" value="" style="endArrow=none;dashed=1;html=1;dashPattern=1 3;strokeWidth=2;" edge="1" parent="1">
                    <mxGeometry width="50" height="50" relative="1" as="geometry">
                        <mxPoint x="250" y="260" as="sourcePoint"/>
                        <mxPoint x="250" y="230" as="targetPoint"/>
                    </mxGeometry>
                </mxCell>
                <mxCell id="19" value="Segment" style="rounded=0;whiteSpace=wrap;html=1;fillColor=#FFFFFF;verticalAlign=top;fontSize=18;" vertex="1" parent="1">
                    <mxGeometry x="470" y="70" width="400" height="310" as="geometry"/>
                </mxCell>
                <mxCell id="20" value="Index file" style="rounded=0;whiteSpace=wrap;html=1;verticalAlign=top;fontSize=16;" vertex="1" parent="1">
                    <mxGeometry x="490" y="120" width="120" height="240" as="geometry"/>
                </mxCell>
                <mxCell id="21" value="Store file" style="rounded=0;whiteSpace=wrap;html=1;verticalAlign=top;fontSize=16;" vertex="1" parent="1">
                    <mxGeometry x="630" y="120" width="220" height="240" as="geometry"/>
                </mxCell>
                <mxCell id="22" value="Record" style="rounded=1;whiteSpace=wrap;html=1;labelBorderColor=none;fontSize=14;fontColor=#000000;fillColor=#FFFFFF;" vertex="1" parent="1">
                    <mxGeometry x="650" y="160" width="180" height="30" as="geometry"/>
                </mxCell>
                <mxCell id="23" value="Record" style="rounded=1;whiteSpace=wrap;html=1;labelBorderColor=none;fontSize=14;fontColor=#000000;fillColor=#FFFFFF;" vertex="1" parent="1">
                    <mxGeometry x="650" y="210" width="180" height="30" as="geometry"/>
                </mxCell>
                <mxCell id="24" value="Record" style="rounded=1;whiteSpace=wrap;html=1;labelBorderColor=none;fontSize=14;fontColor=#000000;fillColor=#FFFFFF;" vertex="1" parent="1">
                    <mxGeometry x="650" y="260" width="180" height="30" as="geometry"/>
                </mxCell>
                <mxCell id="25" value="Record" style="rounded=1;whiteSpace=wrap;html=1;labelBorderColor=none;fontSize=14;fontColor=#000000;fillColor=#FFFFFF;" vertex="1" parent="1">
                    <mxGeometry x="650" y="310" width="180" height="30" as="geometry"/>
                </mxCell>
                <mxCell id="30" style="edgeStyle=none;html=1;exitX=1;exitY=0.5;exitDx=0;exitDy=0;entryX=0;entryY=0.5;entryDx=0;entryDy=0;fontSize=14;fontColor=#000000;" edge="1" parent="1" source="26" target="22">
                    <mxGeometry relative="1" as="geometry"/>
                </mxCell>
                <mxCell id="26" value="&amp;amp;record" style="rounded=1;whiteSpace=wrap;html=1;labelBorderColor=none;fontSize=14;fontColor=#000000;fillColor=#FFFFFF;" vertex="1" parent="1">
                    <mxGeometry x="505" y="160" width="90" height="30" as="geometry"/>
                </mxCell>
                <mxCell id="31" style="edgeStyle=none;html=1;exitX=1;exitY=0.5;exitDx=0;exitDy=0;entryX=0;entryY=0.5;entryDx=0;entryDy=0;fontSize=14;fontColor=#000000;" edge="1" parent="1" source="27" target="23">
                    <mxGeometry relative="1" as="geometry"/>
                </mxCell>
                <mxCell id="27" value="&amp;amp;record" style="rounded=1;whiteSpace=wrap;html=1;labelBorderColor=none;fontSize=14;fontColor=#000000;fillColor=#FFFFFF;" vertex="1" parent="1">
                    <mxGeometry x="505" y="210" width="90" height="30" as="geometry"/>
                </mxCell>
                <mxCell id="32" style="edgeStyle=none;html=1;exitX=1;exitY=0.5;exitDx=0;exitDy=0;entryX=0;entryY=0.5;entryDx=0;entryDy=0;fontSize=14;fontColor=#000000;" edge="1" parent="1" source="28" target="24">
                    <mxGeometry relative="1" as="geometry"/>
                </mxCell>
                <mxCell id="28" value="&amp;amp;record" style="rounded=1;whiteSpace=wrap;html=1;labelBorderColor=none;fontSize=14;fontColor=#000000;fillColor=#FFFFFF;" vertex="1" parent="1">
                    <mxGeometry x="505" y="260" width="90" height="30" as="geometry"/>
                </mxCell>
                <mxCell id="33" style="edgeStyle=none;html=1;exitX=1;exitY=0.5;exitDx=0;exitDy=0;entryX=0;entryY=0.5;entryDx=0;entryDy=0;fontSize=14;fontColor=#000000;" edge="1" parent="1" source="29" target="25">
                    <mxGeometry relative="1" as="geometry"/>
                </mxCell>
                <mxCell id="29" value="&amp;amp;record" style="rounded=1;whiteSpace=wrap;html=1;labelBorderColor=none;fontSize=14;fontColor=#000000;fillColor=#FFFFFF;" vertex="1" parent="1">
                    <mxGeometry x="505" y="310" width="90" height="30" as="geometry"/>
                </mxCell>
                <mxCell id="34" value="" style="shape=flexArrow;endArrow=classic;html=1;fontSize=14;fontColor=#000000;exitX=0.944;exitY=0;exitDx=0;exitDy=0;exitPerimeter=0;entryX=0;entryY=0.548;entryDx=0;entryDy=0;entryPerimeter=0;" edge="1" parent="1" source="16" target="19">
                    <mxGeometry width="50" height="50" relative="1" as="geometry">
                        <mxPoint x="370" y="290" as="sourcePoint"/>
                        <mxPoint x="460" y="210" as="targetPoint"/>
                        <Array as="points">
                            <mxPoint x="370" y="240"/>
                        </Array>
                    </mxGeometry>
                </mxCell>
                <mxCell id="36" value="Index file" style="rounded=0;whiteSpace=wrap;html=1;verticalAlign=top;fontSize=16;" vertex="1" parent="1">
                    <mxGeometry x="330" y="520" width="120" height="190" as="geometry"/>
                </mxCell>
                <mxCell id="37" value="Store file" style="rounded=0;whiteSpace=wrap;html=1;verticalAlign=top;fontSize=16;" vertex="1" parent="1">
                    <mxGeometry x="470" y="520" width="220" height="190" as="geometry"/>
                </mxCell>
                <mxCell id="38" value="Record" style="rounded=1;whiteSpace=wrap;html=1;labelBorderColor=none;fontSize=14;fontColor=#000000;fillColor=#FFFFFF;" vertex="1" parent="1">
                    <mxGeometry x="490" y="560" width="180" height="30" as="geometry"/>
                </mxCell>
                <mxCell id="39" value="Record" style="rounded=1;whiteSpace=wrap;html=1;labelBorderColor=none;fontSize=14;fontColor=#000000;fillColor=#FFFFFF;" vertex="1" parent="1">
                    <mxGeometry x="490" y="610" width="180" height="30" as="geometry"/>
                </mxCell>
                <mxCell id="40" value="Record" style="rounded=1;whiteSpace=wrap;html=1;labelBorderColor=none;fontSize=14;fontColor=#000000;fillColor=#FFFFFF;" vertex="1" parent="1">
                    <mxGeometry x="490" y="660" width="180" height="30" as="geometry"/>
                </mxCell>
                <mxCell id="42" style="edgeStyle=none;html=1;exitX=1;exitY=0.5;exitDx=0;exitDy=0;entryX=0;entryY=0.5;entryDx=0;entryDy=0;fontSize=14;fontColor=#000000;" edge="1" parent="1" source="43" target="38">
                    <mxGeometry relative="1" as="geometry"/>
                </mxCell>
                <mxCell id="43" value="&amp;amp;record" style="rounded=1;whiteSpace=wrap;html=1;labelBorderColor=none;fontSize=14;fontColor=#000000;fillColor=#FFFFFF;" vertex="1" parent="1">
                    <mxGeometry x="345" y="560" width="90" height="30" as="geometry"/>
                </mxCell>
                <mxCell id="44" style="edgeStyle=none;html=1;exitX=1;exitY=0.5;exitDx=0;exitDy=0;entryX=0;entryY=0.5;entryDx=0;entryDy=0;fontSize=14;fontColor=#000000;" edge="1" parent="1" source="45" target="39">
                    <mxGeometry relative="1" as="geometry"/>
                </mxCell>
                <mxCell id="45" value="&amp;amp;record" style="rounded=1;whiteSpace=wrap;html=1;labelBorderColor=none;fontSize=14;fontColor=#000000;fillColor=#FFFFFF;" vertex="1" parent="1">
                    <mxGeometry x="345" y="610" width="90" height="30" as="geometry"/>
                </mxCell>
                <mxCell id="46" style="edgeStyle=none;html=1;exitX=1;exitY=0.5;exitDx=0;exitDy=0;entryX=0;entryY=0.5;entryDx=0;entryDy=0;fontSize=14;fontColor=#000000;" edge="1" parent="1" source="47" target="40">
                    <mxGeometry relative="1" as="geometry"/>
                </mxCell>
                <mxCell id="47" value="&amp;amp;record" style="rounded=1;whiteSpace=wrap;html=1;labelBorderColor=none;fontSize=14;fontColor=#000000;fillColor=#FFFFFF;" vertex="1" parent="1">
                    <mxGeometry x="345" y="660" width="90" height="30" as="geometry"/>
                </mxCell>
                <mxCell id="52" value="How to get the record with offset" style="text;html=1;align=center;verticalAlign=middle;resizable=0;points=[];autosize=1;strokeColor=none;fillColor=none;fontSize=20;fontColor=#000000;fontStyle=1" vertex="1" parent="1">
                    <mxGeometry x="45" y="450" width="330" height="30" as="geometry"/>
                </mxCell>
                <mxCell id="56" style="edgeStyle=none;html=1;exitX=0.003;exitY=0.072;exitDx=0;exitDy=0;fontSize=20;fontColor=#000000;entryX=0;entryY=0.5;entryDx=0;entryDy=0;exitPerimeter=0;" edge="1" parent="1" source="36" target="45">
                    <mxGeometry relative="1" as="geometry">
                        <Array as="points">
                            <mxPoint x="280" y="534"/>
                            <mxPoint x="280" y="625"/>
                        </Array>
                    </mxGeometry>
                </mxCell>
                <mxCell id="57" value="offset" style="text;html=1;align=center;verticalAlign=middle;resizable=0;points=[];autosize=1;strokeColor=none;fillColor=none;fontSize=16;fontColor=#000000;fontStyle=1" vertex="1" parent="1">
                    <mxGeometry x="220" y="565" width="60" height="20" as="geometry"/>
                </mxCell>
            </root>
        </mxGraphModel>
    </diagram>
</mxfile>